<?xml version="1.0" encoding="utf-8"?>
<!-- Generator: Adobe Illustrator 24.1.2, SVG Export Plug-In . SVG Version: 6.00 Build 0)  -->
<svg version="1.1" id="Ñëîé_1" xmlns="http://www.w3.org/2000/svg" xmlns:xlink="http://www.w3.org/1999/xlink" x="0px" y="0px"
	 viewBox="0 0 5000 5000" style="enable-background:new 0 0 5000 5000;" xml:space="preserve">
<style type="text/css">
	.st0{fill:#FFFFFF;}
</style>
<g>
	<path class="st0" d="M4016,3310.3v-0.6c-8.3,0.1-15.9,1.9-24.3,1.9H1999.7h-67.1h-40.9c0,0-106.2,0.3-145.7,145v454v231.1v222.9
		c6.2,23.8,14.9,43.1,24.2,59.8c47.3,84.7,121.5,84.6,121.5,84.6h2100c8.6,2.1,16.9,1.5,24.8,1.5c158.2,0,183.4-134.2,183.4-134.2
		v-465.7V3445C4200,3445,4175.1,3310.3,4016,3310.3z M3909,4428H2044.3V3388.5H3909V4428z"/>
	<path class="st0" d="M1715.8,4368.8v-4.1v-222.9v-0.7H862.5V2246.2h1070.6v1033.2h66.5V2179.6c15.6-180.4-133.5-207.7-133.5-207.7
		h-465.7H934.7c0,0-149.1,27.3-133.5,207.7v2100c0,0,0.5,106.8,145.2,145.2h454h335c-7.5-15.6-13.6-33.3-18.6-51.9L1715.8,4368.8z"
		/>
	<path class="st0" d="M2793.6,3198.5l151.3-262.1h-86.7c-5.9-225.6-75.1-400.2-206.1-517.5c-49.7-44.5-106.4-79.8-168.5-105.2
		c-50.7-20.7-104.9-35.5-161.1-44.2c-97-14.9-168.8-7.2-171.8-6.9l-15.9,1.9v130.9l30.1-3.4c5.2-0.5,238.6-21.4,400.8,123.9
		c102.6,91.9,157,233.5,162.5,420.6h-85.8L2793.6,3198.5z"/>
	<path class="st0" d="M995.9,1096.9c45.2,26.9,95.6,40.3,151.1,40.3c41.3,0,77.7-7.2,109-21.7c31.3-14.5,56.4-32.9,75.3-55.4v68.2
		h134.7V782.7h-298.7v117h155.1c-7.7,27.2-24.7,50.1-51,68.7c-26.3,18.6-59.5,27.9-99.7,27.9c-49.6,0-89.7-15.5-120.1-46.5
		c-30.4-31-45.6-75.8-45.6-134.3c0-60.8,16.7-107.2,50.1-139.1c33.4-31.9,75.8-47.9,127.2-47.9c62.6,0,122.9,23,180.8,69.1
		l54.1-133.8c-75.6-49.6-154.2-74.4-235.7-74.4c-62,0-118.3,13.3-168.8,39.9c-50.5,26.6-90.4,64.6-119.6,113.9
		c-29.2,49.3-43.9,107.1-43.9,173.3c0,62.6,13,118.3,39,167.1C915.1,1032.2,950.7,1070,995.9,1096.9z"/>
	<rect x="1583" y="498.2" class="st0" width="148.9" height="629.2"/>
	<path class="st0" d="M2016.4,891.7h52.3l135.6,235.7H2378l-168.4-262.3c37.2-17.7,65.7-42.5,85.5-74.4
		c19.8-31.9,29.7-67,29.7-105.5c0-34.9-8.3-66.5-24.8-94.8c-16.5-28.4-41.1-50.8-73.6-67.4c-32.5-16.5-71.5-24.8-117-24.8h-241.9
		v629.2h148.9V891.7z M2016.4,618.8h69.1c25.4,0,45.5,6.6,60.3,19.9c14.8,13.3,22.2,32.7,22.2,58c0,25.4-7.5,44.9-22.6,58.5
		c-15.1,13.6-35.3,20.4-60.7,20.4h-68.2V618.8z"/>
	<polygon class="st0" points="2853.9,997.2 2600.4,997.2 2600.4,875.8 2838.8,875.8 2838.8,749.9 2600.4,749.9 2600.4,628.5 
		2845.9,628.5 2845.9,498.2 2451.5,498.2 2451.5,1127.5 2853.9,1127.5 	"/>
	<path class="st0" d="M3402,991.4c-12.7,9.7-31.8,14.6-57.2,14.6c-30.7,0-62.6-6.3-95.7-19.1c-33.1-12.7-63.2-28.8-90.4-48.3
		l-37.2,136.5c28.9,19.5,62.3,34.6,100.1,45.2c37.8,10.6,76.5,16,116.1,16c72.7,0,130.1-18,172.4-54.1c42.2-36,63.4-86.3,63.4-150.7
		c0-35.4-6.6-64.4-19.9-86.8c-13.3-22.4-31.6-40.8-54.9-54.9c-23.3-14.2-54.5-28.1-93.5-41.7c-43.1-15.4-73.6-28.4-91.3-39
		c-17.7-10.6-26.6-24.5-26.6-41.7c0-15.4,6.9-27.3,20.8-35.9c13.9-8.6,32.6-12.8,56.3-12.8c22.4,0,47.1,3.7,74,11.1
		c26.9,7.4,51,17.3,72.2,29.7l42.5-124.1c-21.9-13-50.4-23.9-85.5-32.8c-35.2-8.9-70.2-13.3-105-13.3c-44.9,0-84.5,7.7-118.8,23
		c-34.3,15.4-60.9,37.7-79.8,66.9c-18.9,29.2-28.4,63.7-28.4,103.2c0,48.5,14.2,86.4,42.5,113.9c28.4,27.5,71.8,52.4,130.3,74.9
		c32.5,11.8,55.8,21.1,70,27.9c14.2,6.8,24.8,14,31.9,21.7c7.1,7.7,10.6,17.4,10.6,29.2C3421,967.9,3414.7,981.7,3402,991.4z"/>
	<path class="st0" d="M4052,498.2v376.6c0,39.6-10.3,69.6-31,90c-20.7,20.4-48.7,30.6-84.2,30.6s-63.5-10.2-84.2-30.6
		c-20.7-20.4-31-50.4-31-90V498.2h-148.9v393.5c0,50.8,10.8,94.5,32.3,131.2c21.6,36.6,52.1,64.7,91.7,84.2
		c39.6,19.5,86,29.2,139.1,29.2c53.2,0,99.7-9.7,139.6-29.2c39.9-19.5,70.6-47.6,92.2-84.2c21.6-36.6,32.3-80.3,32.3-131.2V498.2
		H4052z"/>
	<path class="st0" d="M1121.3,1396c-28.6-15.4-61.4-23-98.5-23H871.9v376h150.9c36.7,0,69.5-7.9,98.2-23.8
		c28.8-15.9,51.2-38.2,67.3-67c16.1-28.8,24.1-61.7,24.1-98.8s-8-69.7-24.1-98C1172.2,1433.2,1149.9,1411.4,1121.3,1396z
		 M1089.5,1642.6c-19.8,19.8-46.8,29.7-81,29.7h-47.7v-222.4h47.7c33.9,0,60.8,9.6,80.8,28.9c19.9,19.2,29.9,46.3,29.9,81.3
		C1119.2,1595.2,1109.3,1622.8,1089.5,1642.6z"/>
	<rect x="1271.2" y="1373" class="st0" width="89" height="376"/>
	<path class="st0" d="M1448.1,1421.4c-11.3,17.5-16.9,38.1-16.9,61.7c0,29,8.5,51.6,25.4,68.1c16.9,16.4,42.9,31.3,77.9,44.8
		c19.4,7.1,33.4,12.6,41.8,16.7c8.5,4.1,14.8,8.4,19.1,13c4.2,4.6,6.4,10.4,6.4,17.5c0,10.6-3.8,18.8-11.4,24.6
		c-7.6,5.8-19,8.7-34.2,8.7c-18.4,0-37.4-3.8-57.2-11.4c-19.8-7.6-37.8-17.2-54-28.9l-22.2,81.6c17.3,11.7,37.2,20.7,59.8,27
		c22.6,6.4,45.7,9.5,69.4,9.5c43.4,0,77.8-10.8,103-32.3c25.2-21.5,37.9-51.5,37.9-90c0-21.2-4-38.5-11.9-51.9
		c-7.9-13.4-18.9-24.4-32.8-32.8c-14-8.5-32.6-16.8-55.9-24.9c-25.8-9.2-44-16.9-54.6-23.3c-10.6-6.4-15.9-14.6-15.9-24.9
		c0-9.2,4.1-16.3,12.4-21.5c8.3-5.1,19.5-7.7,33.6-7.7c13.4,0,28.2,2.2,44.2,6.6c16.1,4.4,30.5,10.3,43.2,17.7l25.4-74.1
		c-13.1-7.8-30.1-14.3-51.1-19.6c-21-5.3-41.9-7.9-62.8-7.9c-26.8,0-50.5,4.6-71,13.8C1475.3,1390.6,1459.4,1404,1448.1,1421.4z"/>
	<path class="st0" d="M1843.7,1621.4h53c27.2,0,50.7-6,70.4-18c19.8-12,34.7-27.6,44.8-46.9c10.1-19.2,15.1-39.8,15.1-61.7
		c0-21.9-5-42.1-15.1-60.6c-10.1-18.5-24.9-33.4-44.5-44.5c-19.6-11.1-43.2-16.7-70.7-16.7h-141.9v376h89V1621.4z M1843.7,1445h32.3
		c18,0,32,4.2,42.1,12.4c10.1,8.3,15.1,20.7,15.1,37.3c0,17.7-5.1,31.2-15.4,40.5c-10.2,9.4-24.2,14-41.8,14h-32.3V1445z"/>
	<path class="st0" d="M2257.9,1367.7c-37.8,0-71.7,7.9-101.7,23.8c-30,15.9-53.6,38.5-70.7,67.8c-17.1,29.3-25.7,63.2-25.7,101.7
		c0,38.5,8.6,72.4,25.7,101.7c17.1,29.3,40.7,51.9,70.7,67.8c30,15.9,63.7,23.8,101.2,23.8c37.8,0,71.8-8.2,102-24.6
		c30.2-16.4,53.8-39.4,71-68.9c17.1-29.5,25.7-63.3,25.7-101.4c0-37.8-8.6-71.2-25.7-100.4c-17.1-29.1-40.7-51.6-70.7-67.5
		C2329.5,1375.6,2295.7,1367.7,2257.9,1367.7z M2349.8,1617.7c-9,16.6-21.4,29.5-37.3,38.7c-15.9,9.2-34.1,13.8-54.6,13.8
		c-20.5,0-38.7-4.6-54.6-13.8c-15.9-9.2-28.3-22.1-37.1-38.7c-8.8-16.6-13.2-35.5-13.2-56.7s4.4-40.1,13.2-56.7
		c8.8-16.6,21.2-29.5,37.1-38.7c15.9-9.2,34.1-13.8,54.6-13.8c20.5,0,38.7,4.6,54.6,13.8c15.9,9.2,28.3,22.1,37.3,38.7
		c9,16.6,13.5,35.5,13.5,56.7S2358.8,1601.1,2349.8,1617.7z"/>
	<path class="st0" d="M2663.8,1667.7c-7.6,5.8-19,8.7-34.2,8.7c-18.4,0-37.4-3.8-57.2-11.4c-19.8-7.6-37.8-17.2-54-28.9l-22.2,81.6
		c17.3,11.7,37.2,20.7,59.8,27c22.6,6.4,45.7,9.5,69.4,9.5c43.4,0,77.8-10.8,103-32.3c25.2-21.5,37.9-51.5,37.9-90
		c0-21.2-4-38.5-11.9-51.9c-7.9-13.4-18.9-24.4-32.8-32.8c-14-8.5-32.6-16.8-55.9-24.9c-25.8-9.2-44-16.9-54.6-23.3
		c-10.6-6.4-15.9-14.6-15.9-24.9c0-9.2,4.1-16.3,12.4-21.5c8.3-5.1,19.5-7.7,33.6-7.7c13.4,0,28.2,2.2,44.2,6.6
		c16.1,4.4,30.5,10.3,43.2,17.7l25.4-74.1c-13.1-7.8-30.1-14.3-51.1-19.6c-21-5.3-41.9-7.9-62.8-7.9c-26.8,0-50.5,4.6-71,13.8
		c-20.5,9.2-36.4,22.5-47.7,40c-11.3,17.5-16.9,38.1-16.9,61.7c0,29,8.5,51.6,25.4,68.1c16.9,16.4,42.9,31.3,77.9,44.8
		c19.4,7.1,33.4,12.6,41.8,16.7c8.5,4.1,14.8,8.4,19.1,13c4.2,4.6,6.4,10.4,6.4,17.5C2675.2,1653.7,2671.4,1661.9,2663.8,1667.7z"/>
	<rect x="2828.3" y="1373" class="st0" width="89" height="376"/>
	<polygon class="st0" points="3063.4,1749 3152.4,1749 3152.4,1450.3 3247.7,1450.3 3247.7,1373 2967,1373 2967,1450.3 
		3063.4,1450.3 	"/>
	<rect x="3297" y="1373" class="st0" width="89" height="376"/>
	<polygon class="st0" points="3424.6,1373 3557.6,1749 3654.5,1749 3787.4,1373 3692.1,1373 3606.8,1645.9 3521,1373 	"/>
	<path class="st0" d="M4103.6,1391.5c-30-15.9-63.9-23.8-101.7-23.8c-37.8,0-71.7,7.9-101.7,23.8c-30,15.9-53.6,38.5-70.7,67.8
		c-17.1,29.3-25.7,63.2-25.7,101.7c0,38.5,8.6,72.4,25.7,101.7c17.1,29.3,40.7,51.9,70.7,67.8c30,15.9,63.7,23.8,101.2,23.8
		c37.8,0,71.8-8.2,102-24.6c30.2-16.4,53.8-39.4,71-68.9c17.1-29.5,25.7-63.3,25.7-101.4c0-37.8-8.6-71.2-25.7-100.4
		C4157.2,1429.9,4133.6,1407.4,4103.6,1391.5z M4093.8,1617.7c-9,16.6-21.4,29.5-37.3,38.7c-15.9,9.2-34.1,13.8-54.6,13.8
		c-20.5,0-38.7-4.6-54.6-13.8c-15.9-9.2-28.3-22.1-37.1-38.7c-8.8-16.6-13.2-35.5-13.2-56.7s4.4-40.1,13.2-56.7
		c8.8-16.6,21.2-29.5,37.1-38.7c15.9-9.2,34.1-13.8,54.6-13.8c20.5,0,38.7,4.6,54.6,13.8c15.9,9.2,28.3,22.1,37.3,38.7
		c9,16.6,13.5,35.5,13.5,56.7S4102.8,1601.1,4093.8,1617.7z"/>
</g>
</svg>
